<svg width="13" height="11" viewBox="0 0 13 11" fill="none" xmlns="http://www.w3.org/2000/svg">
<path d="M7.12561 10.8956C7.08754 10.9304 7.04298 10.9574 6.99449 10.975C6.94599 10.9926 6.8945 11.0004 6.84296 10.9981C6.79142 10.9958 6.74084 10.9834 6.6941 10.9616C6.64736 10.9397 6.60538 10.9089 6.57056 10.8708C6.50024 10.7939 6.46334 10.6923 6.46798 10.5882C6.47028 10.5366 6.48271 10.486 6.50455 10.4393C6.5264 10.3926 6.55724 10.3506 6.59531 10.3158L11.4411 5.8919L0.575041 5.8919C0.47086 5.8919 0.370946 5.85051 0.297279 5.77685C0.223612 5.70318 0.182226 5.60327 0.182226 5.49908C0.182226 5.3949 0.223612 5.29499 0.297279 5.22132C0.370946 5.14766 0.47086 5.10627 0.575041 5.10627L11.4387 5.10627L6.59531 0.684756C6.55719 0.649988 6.52629 0.608051 6.50437 0.561341C6.48246 0.514631 6.46996 0.464061 6.46759 0.41252C6.46522 0.36098 6.47302 0.309476 6.49056 0.260952C6.50809 0.212427 6.53501 0.16783 6.56978 0.129709C6.60455 0.0915875 6.64648 0.0606871 6.69319 0.0387728C6.7399 0.0168585 6.79047 0.00435954 6.84201 0.00198859C6.89355 -0.000382361 6.94506 0.00742211 6.99358 0.0249555C7.04211 0.0424888 7.0867 0.0694081 7.12482 0.104176L12.5582 5.06463C12.6263 5.12686 12.6789 5.2042 12.7116 5.29044C12.7444 5.37668 12.7564 5.4694 12.7468 5.56115C12.7318 5.70469 12.6648 5.83775 12.5582 5.93511L7.12561 10.8956Z" fill="white"/>
</svg>
