<svg width="1440" height="1024" viewBox="0 0 1440 1024" fill="none" xmlns="http://www.w3.org/2000/svg">
<path d="M48.5 44H1391.5" stroke="white" stroke-opacity="0.5" stroke-width="0.5"/>
<path d="M50 278H1392" stroke="white" stroke-opacity="0.5" stroke-width="0.5"/>
<path d="M50 512H1392" stroke="white" stroke-opacity="0.5" stroke-width="0.5"/>
<path d="M48 747H1390" stroke="white" stroke-opacity="0.5" stroke-width="0.5"/>
<path d="M48 981H1390" stroke="white" stroke-opacity="0.5" stroke-width="0.5"/>
<path d="M49 44V981" stroke="white" stroke-opacity="0.5" stroke-width="0.5"/>
<path d="M317 44V981" stroke="white" stroke-opacity="0.5" stroke-width="0.5"/>
<path d="M586 44V981" stroke="white" stroke-opacity="0.5" stroke-width="0.5"/>
<path d="M854 44V981" stroke="white" stroke-opacity="0.5" stroke-width="0.5"/>
<path d="M1122 44V981" stroke="white" stroke-opacity="0.5" stroke-width="0.5"/>
<path d="M1391 44V981" stroke="white" stroke-opacity="0.5" stroke-width="0.5"/>
<path d="M36 41V30H47" stroke="white" stroke-opacity="0.5" stroke-width="0.5"/>
<path d="M36 45V56H47" stroke="white" stroke-opacity="0.5" stroke-width="0.5"/>
<path d="M62.5 41V30H51.5" stroke="white" stroke-opacity="0.5" stroke-width="0.5"/>
<path d="M62.5 45V56H51.5" stroke="white" stroke-opacity="0.5" stroke-width="0.5"/>
<path d="M304.301 41V30H315.301" stroke="white" stroke-opacity="0.5" stroke-width="0.5"/>
<path d="M304.301 45V56H315.301" stroke="white" stroke-opacity="0.5" stroke-width="0.5"/>
<path d="M330.801 41V30H319.801" stroke="white" stroke-opacity="0.5" stroke-width="0.5"/>
<path d="M330.801 45V56H319.801" stroke="white" stroke-opacity="0.5" stroke-width="0.5"/>
<path d="M572.6 41V30H583.6" stroke="white" stroke-opacity="0.5" stroke-width="0.5"/>
<path d="M572.6 45V56H583.6" stroke="white" stroke-opacity="0.5" stroke-width="0.5"/>
<path d="M599.1 41V30H588.1" stroke="white" stroke-opacity="0.5" stroke-width="0.5"/>
<path d="M599.1 45V56H588.1" stroke="white" stroke-opacity="0.5" stroke-width="0.5"/>
<path d="M840.9 41V30H851.9" stroke="white" stroke-opacity="0.5" stroke-width="0.5"/>
<path d="M840.9 45V56H851.9" stroke="white" stroke-opacity="0.5" stroke-width="0.5"/>
<path d="M867.4 41V30H856.4" stroke="white" stroke-opacity="0.5" stroke-width="0.5"/>
<path d="M867.4 45V56H856.4" stroke="white" stroke-opacity="0.5" stroke-width="0.5"/>
<path d="M1109.2 41V30H1120.2" stroke="white" stroke-opacity="0.5" stroke-width="0.5"/>
<path d="M1109.2 45V56H1120.2" stroke="white" stroke-opacity="0.5" stroke-width="0.5"/>
<path d="M1135.7 41V30H1124.7" stroke="white" stroke-opacity="0.5" stroke-width="0.5"/>
<path d="M1135.7 45V56H1124.7" stroke="white" stroke-opacity="0.5" stroke-width="0.5"/>
<path d="M1377.5 41V30H1388.5" stroke="white" stroke-opacity="0.5" stroke-width="0.5"/>
<path d="M1377.5 45V56H1388.5" stroke="white" stroke-opacity="0.5" stroke-width="0.5"/>
<path d="M1404 41V30H1393" stroke="white" stroke-opacity="0.5" stroke-width="0.5"/>
<path d="M1404 45V56H1393" stroke="white" stroke-opacity="0.5" stroke-width="0.5"/>
<path d="M36 275.5V264.5H47" stroke="white" stroke-opacity="0.5" stroke-width="0.5"/>
<path d="M36 279.5V290.5H47" stroke="white" stroke-opacity="0.5" stroke-width="0.5"/>
<path d="M62.5 275.5V264.5H51.5" stroke="white" stroke-opacity="0.5" stroke-width="0.5"/>
<path d="M62.5 279.5V290.5H51.5" stroke="white" stroke-opacity="0.5" stroke-width="0.5"/>
<path d="M304.301 275.5V264.5H315.301" stroke="white" stroke-opacity="0.5" stroke-width="0.5"/>
<path d="M304.301 279.5V290.5H315.301" stroke="white" stroke-opacity="0.5" stroke-width="0.5"/>
<path d="M330.801 275.5V264.5H319.801" stroke="white" stroke-opacity="0.5" stroke-width="0.5"/>
<path d="M330.801 279.5V290.5H319.801" stroke="white" stroke-opacity="0.5" stroke-width="0.5"/>
<path d="M572.6 275.5V264.5H583.6" stroke="white" stroke-opacity="0.5" stroke-width="0.5"/>
<path d="M572.6 279.5V290.5H583.6" stroke="white" stroke-opacity="0.5" stroke-width="0.5"/>
<path d="M599.1 275.5V264.5H588.1" stroke="white" stroke-opacity="0.5" stroke-width="0.5"/>
<path d="M599.1 279.5V290.5H588.1" stroke="white" stroke-opacity="0.5" stroke-width="0.5"/>
<path d="M840.9 275.5V264.5H851.9" stroke="white" stroke-opacity="0.5" stroke-width="0.5"/>
<path d="M840.9 279.5V290.5H851.9" stroke="white" stroke-opacity="0.5" stroke-width="0.5"/>
<path d="M867.4 275.5V264.5H856.4" stroke="white" stroke-opacity="0.5" stroke-width="0.5"/>
<path d="M867.4 279.5V290.5H856.4" stroke="white" stroke-opacity="0.5" stroke-width="0.5"/>
<path d="M1109.2 275.5V264.5H1120.2" stroke="white" stroke-opacity="0.5" stroke-width="0.5"/>
<path d="M1109.2 279.5V290.5H1120.2" stroke="white" stroke-opacity="0.5" stroke-width="0.5"/>
<path d="M1135.7 275.5V264.5H1124.7" stroke="white" stroke-opacity="0.5" stroke-width="0.5"/>
<path d="M1135.7 279.5V290.5H1124.7" stroke="white" stroke-opacity="0.5" stroke-width="0.5"/>
<path d="M1377.5 275.5V264.5H1388.5" stroke="white" stroke-opacity="0.5" stroke-width="0.5"/>
<path d="M1377.5 279.5V290.5H1388.5" stroke="white" stroke-opacity="0.5" stroke-width="0.5"/>
<path d="M1404 275.5V264.5H1393" stroke="white" stroke-opacity="0.5" stroke-width="0.5"/>
<path d="M1404 279.5V290.5H1393" stroke="white" stroke-opacity="0.5" stroke-width="0.5"/>
<path d="M36 510V499H47" stroke="white" stroke-opacity="0.5" stroke-width="0.5"/>
<path d="M36 514V525H47" stroke="white" stroke-opacity="0.5" stroke-width="0.5"/>
<path d="M62.5 510V499H51.5" stroke="white" stroke-opacity="0.5" stroke-width="0.5"/>
<path d="M62.5 514V525H51.5" stroke="white" stroke-opacity="0.5" stroke-width="0.5"/>
<path d="M304.301 510V499H315.301" stroke="white" stroke-opacity="0.5" stroke-width="0.5"/>
<path d="M304.301 514V525H315.301" stroke="white" stroke-opacity="0.5" stroke-width="0.5"/>
<path d="M330.801 510V499H319.801" stroke="white" stroke-opacity="0.5" stroke-width="0.5"/>
<path d="M330.801 514V525H319.801" stroke="white" stroke-opacity="0.5" stroke-width="0.5"/>
<path d="M572.6 510V499H583.6" stroke="white" stroke-opacity="0.5" stroke-width="0.5"/>
<path d="M572.6 514V525H583.6" stroke="white" stroke-opacity="0.5" stroke-width="0.5"/>
<path d="M599.1 510V499H588.1" stroke="white" stroke-opacity="0.5" stroke-width="0.5"/>
<path d="M599.1 514V525H588.1" stroke="white" stroke-opacity="0.5" stroke-width="0.5"/>
<path d="M840.9 510V499H851.9" stroke="white" stroke-opacity="0.5" stroke-width="0.5"/>
<path d="M840.9 514V525H851.9" stroke="white" stroke-opacity="0.5" stroke-width="0.5"/>
<path d="M867.4 510V499H856.4" stroke="white" stroke-opacity="0.5" stroke-width="0.5"/>
<path d="M867.4 514V525H856.4" stroke="white" stroke-opacity="0.5" stroke-width="0.5"/>
<path d="M1109.2 510V499H1120.2" stroke="white" stroke-opacity="0.5" stroke-width="0.5"/>
<path d="M1109.2 514V525H1120.2" stroke="white" stroke-opacity="0.5" stroke-width="0.5"/>
<path d="M1135.7 510V499H1124.7" stroke="white" stroke-opacity="0.5" stroke-width="0.5"/>
<path d="M1135.7 514V525H1124.7" stroke="white" stroke-opacity="0.5" stroke-width="0.5"/>
<path d="M1377.5 510V499H1388.5" stroke="white" stroke-opacity="0.5" stroke-width="0.5"/>
<path d="M1377.5 514V525H1388.5" stroke="white" stroke-opacity="0.5" stroke-width="0.5"/>
<path d="M1404 510V499H1393" stroke="white" stroke-opacity="0.5" stroke-width="0.5"/>
<path d="M1404 514V525H1393" stroke="white" stroke-opacity="0.5" stroke-width="0.5"/>
<path d="M36 744.5V733.5H47" stroke="white" stroke-opacity="0.5" stroke-width="0.5"/>
<path d="M36 748.5V759.5H47" stroke="white" stroke-opacity="0.5" stroke-width="0.5"/>
<path d="M62.5 744.5V733.5H51.5" stroke="white" stroke-opacity="0.5" stroke-width="0.5"/>
<path d="M62.5 748.5V759.5H51.5" stroke="white" stroke-opacity="0.5" stroke-width="0.5"/>
<path d="M304.301 744.5V733.5H315.301" stroke="white" stroke-opacity="0.5" stroke-width="0.5"/>
<path d="M304.301 748.5V759.5H315.301" stroke="white" stroke-opacity="0.5" stroke-width="0.5"/>
<path d="M330.801 744.5V733.5H319.801" stroke="white" stroke-opacity="0.5" stroke-width="0.5"/>
<path d="M330.801 748.5V759.5H319.801" stroke="white" stroke-opacity="0.5" stroke-width="0.5"/>
<path d="M572.6 744.5V733.5H583.6" stroke="white" stroke-opacity="0.5" stroke-width="0.5"/>
<path d="M572.6 748.5V759.5H583.6" stroke="white" stroke-opacity="0.5" stroke-width="0.5"/>
<path d="M599.1 744.5V733.5H588.1" stroke="white" stroke-opacity="0.5" stroke-width="0.5"/>
<path d="M599.1 748.5V759.5H588.1" stroke="white" stroke-opacity="0.5" stroke-width="0.5"/>
<path d="M840.9 744.5V733.5H851.9" stroke="white" stroke-opacity="0.5" stroke-width="0.5"/>
<path d="M840.9 748.5V759.5H851.9" stroke="white" stroke-opacity="0.5" stroke-width="0.5"/>
<path d="M867.4 744.5V733.5H856.4" stroke="white" stroke-opacity="0.5" stroke-width="0.5"/>
<path d="M867.4 748.5V759.5H856.4" stroke="white" stroke-opacity="0.5" stroke-width="0.5"/>
<path d="M1109.2 744.5V733.5H1120.2" stroke="white" stroke-opacity="0.5" stroke-width="0.5"/>
<path d="M1109.2 748.5V759.5H1120.2" stroke="white" stroke-opacity="0.5" stroke-width="0.5"/>
<path d="M1135.7 744.5V733.5H1124.7" stroke="white" stroke-opacity="0.5" stroke-width="0.5"/>
<path d="M1135.7 748.5V759.5H1124.7" stroke="white" stroke-opacity="0.5" stroke-width="0.5"/>
<path d="M1377.5 744.5V733.5H1388.5" stroke="white" stroke-opacity="0.5" stroke-width="0.5"/>
<path d="M1377.5 748.5V759.5H1388.5" stroke="white" stroke-opacity="0.5" stroke-width="0.5"/>
<path d="M1404 744.5V733.5H1393" stroke="white" stroke-opacity="0.5" stroke-width="0.5"/>
<path d="M1404 748.5V759.5H1393" stroke="white" stroke-opacity="0.5" stroke-width="0.5"/>
<path d="M36 979V968H47" stroke="white" stroke-opacity="0.5" stroke-width="0.5"/>
<path d="M36 983V994H47" stroke="white" stroke-opacity="0.5" stroke-width="0.5"/>
<path d="M62.5 979V968H51.5" stroke="white" stroke-opacity="0.5" stroke-width="0.5"/>
<path d="M62.5 983V994H51.5" stroke="white" stroke-opacity="0.5" stroke-width="0.5"/>
<path d="M304.301 979V968H315.301" stroke="white" stroke-opacity="0.5" stroke-width="0.5"/>
<path d="M304.301 983V994H315.301" stroke="white" stroke-opacity="0.5" stroke-width="0.5"/>
<path d="M330.801 979V968H319.801" stroke="white" stroke-opacity="0.5" stroke-width="0.5"/>
<path d="M330.801 983V994H319.801" stroke="white" stroke-opacity="0.5" stroke-width="0.5"/>
<path d="M572.6 979V968H583.6" stroke="white" stroke-opacity="0.5" stroke-width="0.5"/>
<path d="M572.6 983V994H583.6" stroke="white" stroke-opacity="0.5" stroke-width="0.5"/>
<path d="M599.1 979V968H588.1" stroke="white" stroke-opacity="0.5" stroke-width="0.5"/>
<path d="M599.1 983V994H588.1" stroke="white" stroke-opacity="0.5" stroke-width="0.5"/>
<path d="M840.9 979V968H851.9" stroke="white" stroke-opacity="0.5" stroke-width="0.5"/>
<path d="M840.9 983V994H851.9" stroke="white" stroke-opacity="0.5" stroke-width="0.5"/>
<path d="M867.4 979V968H856.4" stroke="white" stroke-opacity="0.5" stroke-width="0.5"/>
<path d="M867.4 983V994H856.4" stroke="white" stroke-opacity="0.5" stroke-width="0.5"/>
<path d="M1109.2 979V968H1120.2" stroke="white" stroke-opacity="0.5" stroke-width="0.5"/>
<path d="M1109.2 983V994H1120.2" stroke="white" stroke-opacity="0.5" stroke-width="0.5"/>
<path d="M1135.7 979V968H1124.7" stroke="white" stroke-opacity="0.5" stroke-width="0.5"/>
<path d="M1135.7 983V994H1124.7" stroke="white" stroke-opacity="0.5" stroke-width="0.5"/>
<path d="M1377.5 979V968H1388.5" stroke="white" stroke-opacity="0.5" stroke-width="0.5"/>
<path d="M1377.5 983V994H1388.5" stroke="white" stroke-opacity="0.5" stroke-width="0.5"/>
<path d="M1404 979V968H1393" stroke="white" stroke-opacity="0.5" stroke-width="0.5"/>
<path d="M1404 983V994H1393" stroke="white" stroke-opacity="0.5" stroke-width="0.5"/>
</svg>
